<?xml version="1.0" standalone="no"?><!DOCTYPE svg PUBLIC "-//W3C//DTD SVG 1.1//EN" "http://www.w3.org/Graphics/SVG/1.1/DTD/svg11.dtd"><svg t="1633440035102" class="icon" viewBox="0 0 1024 1024" version="1.1" xmlns="http://www.w3.org/2000/svg" p-id="10241" xmlns:xlink="http://www.w3.org/1999/xlink" width="200" height="200"><defs><style type="text/css"></style></defs><path d="M379.497027 99.763531m40.234485 7.675138l442.998453 84.506475q40.234486 7.675139 32.559347 47.909624l-122.882167 644.170882q-7.675139 40.234486-47.909625 32.559347l-442.998453-84.506474q-40.234486-7.675139-32.559347-47.909625l122.882168-644.170882q7.675139-40.234486 47.909624-32.559347Z" fill="#B0BEC5" p-id="10242"></path><path d="M413.38272 150.966692m19.488579 3.717645l400.249312 76.35164q19.488579 3.717645 15.770933 23.206224l-114.36756 599.535749q-3.717645 19.488579-23.206225 15.770934l-400.249312-76.35164q-19.488579-3.717645-15.770933-23.206224l114.36756-599.535749q3.717645-19.488579 23.206225-15.770934Z" fill="#9575CD" p-id="10243"></path><path d="M682.666667 874.666667m-42.666667 0l-469.333333 0q-42.666667 0-42.666667-42.666667l0-682.666667q0-42.666667 42.666667-42.666666l469.333333 0q42.666667 0 42.666667 42.666666l0 682.666667q0 42.666667-42.666667 42.666667Z" fill="#CFD8DC" p-id="10244"></path><path d="M411.52 490.666667h-12.373333a234.666667 234.666667 0 0 1-37.76 106.666666h87.893333a234.666667 234.666667 0 0 1-37.76-106.666666z" fill="#673AB7" p-id="10245"></path><path d="M298.666667 485.973333a56.106667 56.106667 0 0 0 106.666666 24.32 56.106667 56.106667 0 1 0 90.453334-64L405.333333 355.626667l-90.666666 90.88a55.893333 55.893333 0 0 0-16 39.466666zM267.306667 265.173333h-45.226667l-8.533333 25.6H186.24l46.506667-124.586666H256l46.72 124.586666h-26.88z m-38.186667-21.333333h31.146667l-15.573334-46.506667zM543.36 716.16h45.226667l8.533333-25.6h27.306667l-46.506667 124.586667H554.666667l-46.72-124.586667h27.306666z m38.186667 21.333333H550.4l15.573333 46.506667z" fill="#673AB7" p-id="10246"></path></svg>