<?xml version="1.0" standalone="no"?><!DOCTYPE svg PUBLIC "-//W3C//DTD SVG 1.1//EN" "http://www.w3.org/Graphics/SVG/1.1/DTD/svg11.dtd"><svg t="1633434004838" class="icon" viewBox="0 0 1024 1024" version="1.1" xmlns="http://www.w3.org/2000/svg" p-id="9378" xmlns:xlink="http://www.w3.org/1999/xlink" width="200" height="200"><defs><style type="text/css"></style></defs><path d="M512 298.666667m-170.666667 0a170.666667 170.666667 0 1 0 341.333334 0 170.666667 170.666667 0 1 0-341.333334 0Z" fill="#673AB7" p-id="9379"></path><path d="M704 576m-170.666667 0a170.666667 170.666667 0 1 0 341.333334 0 170.666667 170.666667 0 1 0-341.333334 0Z" fill="#673AB7" p-id="9380"></path><path d="M512 490.666667m-128 0a128 128 0 1 0 256 0 128 128 0 1 0-256 0Z" fill="#673AB7" p-id="9381"></path><path d="M320 576m-170.666667 0a170.666667 170.666667 0 1 0 341.333334 0 170.666667 170.666667 0 1 0-341.333334 0Z" fill="#673AB7" p-id="9382"></path><path d="M533.333333 554.666667h-42.666666c0 170.666667-128 362.666667-128 362.666666h298.666666s-128-192-128-362.666666z" fill="#673AB7" p-id="9383"></path></svg>